<?xml version="1.0" encoding="utf-8"?>
<!-- Generator: Adobe Illustrator 18.1.0, SVG Export Plug-In . SVG Version: 6.00 Build 0)  -->
<!DOCTYPE svg PUBLIC "-//W3C//DTD SVG 1.1//EN" "http://www.w3.org/Graphics/SVG/1.1/DTD/svg11.dtd">
<svg version="1.1" id="jigsaw" xmlns="http://www.w3.org/2000/svg" xmlns:xlink="http://www.w3.org/1999/xlink" x="0px" y="0px"
	 viewBox="0 0 512 512" enable-background="new 0 0 512 512" xml:space="preserve">
<path fill="#3498DB" d="M512.025,295.967c0,35.137-16.635,52.51-51.662,52.51c-16.245,0-41.662-20.798-44.231-5.905
	c-7.968,46.099,0,158.117,0,158.117s-155.686,25.496-163.459,0c-4.96-16.28,14.619-23.865,14.619-42.2
	c0-29.934-7.383-44.957-40.588-48.66c-29.661-3.295-52.199,17.144-52.199,47.078c0,18.335,21.693,27.764,15.952,43.783
	c-8.57,23.898-182.485,0-182.485,0s-7.968-112.018,0-158.117c2.569-14.893,27.986,5.905,44.231,5.905
	c35.027,0,51.662-17.373,51.662-52.51c0-35.137-18.749-53.26-53.776-53.26c-16.245,0-31.758,18.89-42.117,5.024
	c-17.985-24.061,0-156.486,0-156.486s173.915,23.898,182.485,0c5.74-16.019-15.952-25.448-15.952-43.783
	c0-29.933,22.538-50.373,52.199-47.078c33.206,3.703,40.588,18.727,40.588,48.66c0,18.335-19.579,25.92-14.619,42.2
	c7.773,25.496,163.459,0,163.459,0s-17.985,132.425,0,156.486c10.358,13.866,25.872-5.024,42.117-5.024
	C493.275,242.707,512.025,260.83,512.025,295.967z"/>
<g>
	<path fill="#FFFFFF" d="M161.742,271.247h-8.072c-5.654,0-10.152,1.522-13.378,4.528c-3.25,3.031-4.899,7.435-4.899,13.088v23.712
		h9.363v-24.539c0-2.644,0.772-4.627,2.362-6.064c1.606-1.453,3.809-2.188,6.552-2.188h8.072c2.74,0,4.944,0.737,6.553,2.188
		c1.568,1.416,2.361,3.456,2.361,6.064v24.539h9.363v-23.712c0-5.655-1.649-10.059-4.9-13.088
		C171.898,272.771,167.398,271.247,161.742,271.247z"/>
	<path fill="#FFFFFF" d="M249.032,271.247h-8.073c-5.651,0-10.152,1.522-13.376,4.528c-0.079,0.073-0.144,0.156-0.22,0.232
		c-0.077-0.076-0.143-0.159-0.221-0.232c-3.22-3.004-7.721-4.528-13.377-4.528h-8.071c-5.654,0-10.154,1.522-13.377,4.528
		c-3.252,3.031-4.9,7.435-4.9,13.088v23.712h9.361v-24.539c0-2.644,0.773-4.628,2.364-6.064c1.605-1.453,3.809-2.188,6.552-2.188
		h8.071c2.739,0,4.944,0.737,6.553,2.188c1.567,1.415,2.362,3.456,2.362,6.064v24.539h0.004h9.357h0.004v-24.539
		c0-2.644,0.774-4.627,2.363-6.064c1.607-1.453,3.81-2.188,6.552-2.188h8.073c2.738,0,4.943,0.737,6.552,2.188
		c1.568,1.416,2.362,3.456,2.362,6.064v24.539h9.361v-23.712c0-5.655-1.647-10.06-4.899-13.088
		C259.187,272.771,254.687,271.247,249.032,271.247z"/>
	<path fill="#FFFFFF" d="M379.82,290.352c0.688-0.796,1.196-1.778,1.515-2.936c0.328-1.219,0.488-2.902,0.488-5.145
		c0-4.16-1.444-7.187-4.299-9.005c-2.196-1.34-5.398-2.019-9.525-2.019h-29.757v41.328h32.227c4.48,0,7.847-0.992,10.01-2.944
		c2.206-1.994,3.322-5.286,3.322-9.783C383.802,295.255,382.464,292.069,379.82,290.352z M368.108,286.682h-20.502v-6.842h20.446
		c3.923,0,4.467,1.696,4.467,3.529C372.519,285.09,371.984,286.682,368.108,286.682z M347.606,295.327h21.767
		c4.513,0,5.121,2.064,5.121,4.081c0,3.211-1.402,4.52-4.846,4.52h-22.042V295.327z"/>
	<path fill="#FFFFFF" d="M403.354,271.328h3.546v0.664h-1.392v3.721h-0.769v-3.721h-1.386V271.328z"/>
	<path fill="#FFFFFF" d="M407.399,271.328h1.082l1.209,3.432h0.013l1.182-3.432h1.068v4.385h-0.734v-3.385h-0.01l-1.217,3.385
		h-0.633l-1.216-3.385h-0.011v3.385h-0.734V271.328z"/>
	<rect x="391.081" y="271.288" fill="#FFFFFF" width="9.514" height="41.287"/>
	<path fill="#FFFFFF" d="M273.559,285.468c0.021-0.034,0.043-0.066,0.064-0.1l0.131-0.195c0.118-0.168,0.235-0.324,0.361-0.485
		c0.053-0.073,0.078-0.106,0.106-0.14l0.059-0.073c0.23-0.277,0.496-0.56,0.83-0.878l0.1-0.094c0.162-0.15,0.339-0.302,0.523-0.456
		c0.093-0.077,0.184-0.154,0.282-0.232l0.047-0.035c0.517-0.4,1.064-0.759,1.66-1.096l0.196-0.109
		c0.423-0.232,0.852-0.443,1.304-0.637l0.048-0.021c0.218-0.094,0.444-0.184,0.676-0.274c0.102-0.038,0.202-0.075,0.305-0.111
		c0.401-0.148,0.83-0.289,1.268-0.419c0.134-0.041,0.271-0.082,0.415-0.12c0.062-0.016,0.121-0.034,0.18-0.053
		c0.088-0.026,0.177-0.054,0.273-0.077c0.745-0.203,1.466-0.363,2.135-0.492l0.007-0.001l0,0c0.317-0.06,0.623-0.114,0.914-0.16
		c0.005-0.001,0.013-0.002,0.018-0.003c0.027-0.005,0.055-0.009,0.082-0.013c0.042-0.006,0.086-0.014,0.126-0.02l0.038-0.006
		c0.255-0.038,0.495-0.071,0.721-0.1l0.071-0.01v0.001c0.229-0.029,0.443-0.054,0.637-0.074l0,0l0,0
		c0.041-0.004,0.08-0.007,0.118-0.011l0.052-0.006v0.001c0.021-0.003,0.041-0.005,0.061-0.006l0,0l0,0
		c0.027-0.003,0.057-0.005,0.083-0.007l0,0l0.006-0.001c0.138-0.013,0.261-0.023,0.373-0.032c0.016-0.001,0.033-0.003,0.049-0.004
		c0.071-0.005,0.138-0.01,0.197-0.015l0.074-0.003c0.203-0.023,0.444-0.036,0.681-0.036h27.755c2.184,0,4.129,1.035,5.375,2.639
		l-0.095-0.522c-0.041-0.199-0.086-0.403-0.136-0.608l-0.056-0.224c-0.054-0.208-0.111-0.418-0.175-0.63l-0.158-0.498
		c-0.095-0.283-0.199-0.567-0.315-0.852c-0.004-0.008-0.007-0.016-0.011-0.026c-1.178-2.872-3.472-5.744-7.919-6.663
		c-0.07-0.014-0.141-0.03-0.211-0.043c-0.189-0.036-0.382-0.068-0.577-0.098c-0.024-0.003-0.05-0.007-0.073-0.01
		c-0.188-0.026-0.383-0.047-0.58-0.067c-0.152-0.015-0.306-0.028-0.463-0.038c-0.104-0.007-0.206-0.016-0.311-0.021l-0.064-0.004
		c-0.278-0.014-0.561-0.023-0.853-0.023h-20.611C280.799,271.178,273.808,277.549,273.559,285.468z"/>
	<path fill="#FFFFFF" d="M323.169,299.84c-0.021,0.097-0.046,0.199-0.074,0.304c-0.002,0.011-0.006,0.023-0.008,0.033
		c-0.027,0.105-0.057,0.212-0.089,0.324c-0.003,0.013-0.007,0.025-0.012,0.039c-0.032,0.111-0.067,0.227-0.107,0.345
		c-0.004,0.012-0.007,0.024-0.011,0.034c-0.041,0.124-0.085,0.251-0.132,0.381c-0.002,0.005-0.004,0.011-0.005,0.017
		c-0.304,0.833-0.751,1.787-1.402,2.792c-0.006,0.008-0.012,0.016-0.017,0.025c-0.103,0.158-0.21,0.316-0.323,0.475
		c-0.009,0.012-0.016,0.022-0.024,0.034c-0.118,0.164-0.24,0.329-0.368,0.495c-0.003,0.003-0.005,0.006-0.008,0.009
		c-0.401,0.516-0.859,1.039-1.382,1.559c-0.004,0.004-0.009,0.008-0.013,0.012c-0.162,0.161-0.331,0.321-0.505,0.48
		c-0.032,0.029-0.066,0.059-0.098,0.087c-0.15,0.137-0.304,0.271-0.465,0.405c-0.046,0.038-0.091,0.076-0.138,0.114
		c-0.154,0.128-0.313,0.254-0.475,0.38c-0.052,0.04-0.103,0.079-0.156,0.119c-0.169,0.127-0.344,0.255-0.524,0.382
		c-0.048,0.034-0.095,0.068-0.144,0.103c-0.213,0.147-0.432,0.292-0.658,0.437c-0.018,0.012-0.035,0.022-0.051,0.034
		c-0.496,0.314-1.025,0.621-1.59,0.919c-0.071,0.037-0.146,0.074-0.217,0.111c-0.208,0.106-0.418,0.213-0.634,0.316
		c-0.098,0.047-0.199,0.093-0.299,0.14c-0.2,0.092-0.402,0.184-0.61,0.275c-0.111,0.048-0.226,0.097-0.341,0.145
		c-0.205,0.086-0.415,0.17-0.628,0.255c-0.12,0.047-0.24,0.094-0.362,0.14c-0.224,0.085-0.454,0.168-0.687,0.25
		c-0.118,0.041-0.233,0.084-0.353,0.124c-0.276,0.093-0.559,0.183-0.847,0.272c-0.082,0.025-0.162,0.052-0.246,0.078
		c-0.362,0.108-0.731,0.214-1.111,0.315h6.295c9.656,0,17.512-6.608,17.512-14.731v-11.961c0-7.651-6.971-13.957-15.851-14.664
		c0.006,0.004,0.013,0.007,0.02,0.01l0.079,0.037c0.203,0.096,0.373,0.179,0.538,0.266l0.156,0.082
		c0.182,0.099,0.359,0.202,0.531,0.309l0.111,0.072c0.181,0.116,0.321,0.209,0.455,0.306c0.035,0.023,0.078,0.053,0.122,0.086
		c0.153,0.112,0.302,0.229,0.45,0.347l0.158,0.132c0.132,0.111,0.263,0.224,0.391,0.344c0.033,0.029,0.075,0.071,0.115,0.111
		c0.115,0.106,0.224,0.217,0.332,0.329c0.038,0.038,0.08,0.084,0.122,0.129c0.136,0.145,0.253,0.277,0.365,0.411
		c0.041,0.047,0.084,0.1,0.127,0.153c0.078,0.098,0.163,0.201,0.244,0.311c0.031,0.04,0.071,0.093,0.11,0.146
		c0.099,0.132,0.198,0.271,0.289,0.409l0.115,0.171c0.074,0.115,0.148,0.229,0.213,0.342l0.109,0.178
		c0.076,0.131,0.142,0.25,0.208,0.368l0.106,0.199c0.07,0.135,0.14,0.27,0.205,0.405l0.223,0.489c0.036,0.08,0.06,0.137,0.082,0.193
		c0.051,0.117,0.11,0.261,0.166,0.405l0.064,0.169c0.044,0.115,0.084,0.229,0.122,0.344c0.016,0.036,0.036,0.094,0.053,0.15
		c0.033,0.094,0.066,0.199,0.1,0.303l0.082,0.27c0.044,0.147,0.084,0.287,0.122,0.424l0.12,0.48
		c0.011,0.038,0.024,0.092,0.036,0.148c0.03,0.123,0.061,0.268,0.09,0.409l0.024,0.105l0.155,0.874
		c0.004,0.016,0.01,0.055,0.014,0.095c0.043,0.266,0.079,0.549,0.107,0.818l0.004,0.058c0.027,0.222,0.048,0.481,0.066,0.719
		c0.017,0.199,0.033,0.462,0.045,0.719l0.036,1.656v12.405c0,0.57-0.072,1.136-0.213,1.682h0.001
		C323.174,299.822,323.172,299.832,323.169,299.84z"/>
	<path fill="#FFFFFF" d="M275.883,284.393c-0.308,0.294-0.548,0.547-0.739,0.779c-0.017,0.022-0.046,0.058-0.077,0.092l-0.081,0.111
		c-0.112,0.142-0.218,0.286-0.318,0.426l-0.122,0.18c-0.092,0.143-0.186,0.294-0.27,0.44l-0.055,0.096
		c-0.082,0.149-0.158,0.299-0.225,0.438c-0.08,0.173-0.14,0.316-0.19,0.449c-0.06,0.154-0.097,0.262-0.126,0.356l-0.015,0.047
		c-0.027,0.087-0.047,0.158-0.063,0.218l-0.015,0.066c-0.009,0.043-0.019,0.081-0.026,0.112l-0.01,0.055l-0.001,9.604
		c0,8.125,7.06,14.736,15.737,14.736h13.008c10.408-1.399,15.401-5.26,17.794-8.64c-1.032,0.621-2.235,0.973-3.502,0.973h-27.755
		c-3.749,0-6.799-3.051-6.799-6.8v-12.467c0-2.039,0.895-3.88,2.331-5.13l-1.7,0.402c-0.081,0.021-0.153,0.044-0.224,0.066
		c-0.073,0.022-0.143,0.043-0.219,0.064c-0.132,0.036-0.259,0.073-0.385,0.111c-0.419,0.124-0.824,0.258-1.208,0.398
		c-0.099,0.035-0.192,0.068-0.285,0.105c-0.222,0.086-0.444,0.174-0.654,0.265l-0.048,0.021c-0.413,0.18-0.804,0.372-1.198,0.588
		l-0.152,0.083c-0.575,0.324-1.077,0.655-1.518,0.995l-0.09,0.068c-0.25,0.199-0.494,0.407-0.709,0.609L275.883,284.393z"/>
	<polygon fill="#FFFFFF" points="276.405,283.216 276.405,283.216 276.405,283.216 	"/>
	<polygon fill="#FFFFFF" points="284.677,279.906 284.677,279.906 284.677,279.906 	"/>
	<g>
		<rect x="118.312" y="271.253" fill="#FFFFFF" width="9.542" height="41.413"/>
	</g>
</g>
</svg>
