<?xml version="1.0" encoding="utf-8"?>
<!-- Generator: Adobe Illustrator 18.1.1, SVG Export Plug-In . SVG Version: 6.00 Build 0)  -->
<!DOCTYPE svg PUBLIC "-//W3C//DTD SVG 1.1//EN" "http://www.w3.org/Graphics/SVG/1.1/DTD/svg11.dtd">
<svg version="1.1" id="Layer_1" xmlns="http://www.w3.org/2000/svg" xmlns:xlink="http://www.w3.org/1999/xlink" x="0px" y="0px"
	 viewBox="0 0 512 512" enable-background="new 0 0 512 512" xml:space="preserve">
<path fill="#B5351C" d="M512,296.5c0,34.7-16.4,52.1-51.1,52.1c-16.4,0-41.9-20.4-43.9-6.1c-8.2,46,0,157.4,0,157.4
	s-155.3,25.5-163.5,0c-5.1-16.4,14.3-23.5,14.3-41.9c0-29.6-7.2-45-40.9-49.1c-29.6-3.1-52.1,17.4-52.1,47
	c0,18.4,21.5,27.6,16.4,43.9c-8.2,23.5-181.9,0-181.9,0S1,389.5,9.2,343.5c2-15.3,27.6,5.1,43.9,5.1c34.7,0,51.1-17.4,51.1-52.1
	s-18.4-53.1-54.2-53.1c-16.4,0-31.7,18.4-41.9,5.1c-18.4-23.5,0-156.4,0-156.4s173.7,23.5,181.9,0c7.2-16.4-15.3-25.5-15.3-43.9
	c0-29.6,22.5-50.1,52.1-47c32.7,4.1,40.9,18.4,40.9,49.1c0,18.4-19.4,25.5-14.3,41.9c8.2,25.5,163.5,0,163.5,0s-18.4,131.8,0,156.4
	c10.2,14.3,25.5-5.1,41.9-5.1C493.6,243.3,512,261.7,512,296.5z"/>
<g>
	<path fill="#FFFFFF" d="M338.5,311c-0.2,0.8-0.3,1.5-0.5,2.2c-1.1,4.7-3.1,9-6.4,12.6c-3.4,3.7-7.5,6.2-12.4,7.5
		c-5.6,1.5-11.3,1.6-16.9,0c-6.7-1.9-11.7-6-15.1-12.1c-2-3.5-3.1-7.4-3.6-11.4c-0.7-5.2-0.4-10.4,1.1-15.4c1.8-5.9,5-10.9,10-14.7
		c3.3-2.5,7-4,11-4.7c4.8-0.9,9.7-0.7,14.4,0.7c4.8,1.4,8.8,4,12.1,7.9c0.2,0.2,0.3,0.4,0.5,0.6c0.1-0.3,0.2-0.4,0.2-0.6
		c1-4.6,2.8-8.9,5.8-12.6c4.1-5.2,9.5-8.3,16-9.5c4.7-0.9,9.5-0.7,14.1,0.6c6.7,1.9,11.7,6,15.1,12.1c2.3,4.2,3.5,8.7,3.8,13.4
		c0.3,4.4,0,8.7-1.1,12.9c-1,3.8-2.6,7.3-5,10.4c-3.4,4.3-7.8,7.2-13.1,8.7c-5.8,1.6-11.6,1.7-17.4,0.1c-4.9-1.4-8.9-4-12.2-7.9
		C339,311.5,338.8,311.3,338.5,311z M374.2,290.3c0-0.5-0.1-1.5-0.2-2.5c-0.3-3.2-1-6.3-2.5-9.2c-1.2-2.3-2.7-4.2-4.8-5.6
		c-4.5-3-11.7-2.6-16,2.6c-2.3,2.8-3.5,6.1-4.1,9.6c-0.5,2.9-0.6,5.8-0.3,8.8c0.3,3.2,1,6.3,2.6,9.2c2.2,3.9,5.3,6.5,9.9,7
		c3.5,0.4,6.6-0.5,9.3-2.7c1.9-1.7,3.3-3.8,4.2-6.1C373.6,298,374.1,294.5,374.2,290.3z M325.2,304c-0.1-2.8-0.3-5.4-1.4-8.7
		c-0.8-2.4-1.9-4.5-3.6-6.4c-4.8-5.4-13.1-5.2-17.6-0.5c-2.4,2.4-3.8,5.4-4.6,8.7c-1.2,5-1.2,9.9,0,14.9c0.7,2.8,1.8,5.4,3.7,7.7
		c4.7,5.7,14,6,18.9,0c1.5-1.8,2.5-3.9,3.2-6.1C324.9,310.5,325.2,307.5,325.2,304z"/>
	<path fill="#FFFFFF" d="M192.9,320.7c-4.7,0.9-9.2,1.8-13.9,2.7c-0.1-0.2-0.2-0.4-0.3-0.6c-3.6-8.9-7.2-17.7-10.7-26.6
		c-1.6-4.1-2.9-8.2-4.4-12.4c-0.1-0.2-0.2-0.5-0.3-0.8c-0.3,0.3-0.2,0.6-0.2,0.8c0.1,4.6,0.2,9.3,0.1,13.9
		c-0.2,9.4-0.5,18.8-0.7,28.2c0,0.2,0,0.4,0,0.6c-4.7,0.9-9.3,1.8-14,2.7c-8.2-18.1-16.3-36.1-24.5-54.2c4.6-0.9,9.1-1.8,13.7-2.7
		c2.7,7,5.5,13.9,8.2,20.8c2.7,6.9,5.3,13.9,8,20.8c-0.4-14.9,0.1-29.8,0.2-44.8c4.6-0.9,9.1-1.8,13.7-2.7
		c5.4,13.8,11.3,27.4,15.9,41.4c0.1,0,0.1,0,0.2,0c-0.1-2.4-0.2-4.9-0.3-7.3c-0.1-2.5-0.1-4.9-0.2-7.4c0-2.5-0.1-5-0.1-7.5
		c0-2.5,0-4.9,0.1-7.4c0-2.5,0-4.9,0-7.4c0-2.5,0-4.9,0-7.5c4.4-0.9,8.7-1.7,13.1-2.5C195.3,281,194.1,300.8,192.9,320.7z"/>
	<path fill="#FFFFFF" d="M233.6,280.3c4.3,0.6,8.5,1.2,12.9,1.8c-0.1,1-0.2,1.9-0.4,2.8c-0.5,3.6-1,7.2-1.5,10.8
		c-0.5,3.6-1,7.1-1.5,10.7c-0.4,2.8-0.8,5.7-1.2,8.5c-0.7,4.4-1.8,8.7-4.2,12.5c-3.4,5.7-8.4,8.9-15,9.7c-5.1,0.6-10.2,0-15-1.8
		c-6.7-2.5-10.8-7.2-12.3-14.2c-0.8-3.4-0.9-6.9-0.5-10.4c0.5-4.8,1.3-9.7,1.9-14.5c0.5-4,1.1-7.9,1.7-11.9c0.4-2.7,0.8-5.4,1.1-8.1
		c0-0.2,0.1-0.5,0.2-0.8c4.3,0.6,8.5,1.2,12.8,1.8c0,0.3,0,0.5-0.1,0.8c-0.6,4.4-1.2,8.8-1.9,13.2c-0.6,4.3-1.2,8.7-1.8,13
		c-0.4,2.9-0.8,5.8-1.1,8.7c-0.2,2.4,0,4.8,0.7,7.2c1.3,3.9,4.2,6.3,8.4,6.6c1.9,0.2,3.7,0,5.4-0.9c1.8-0.9,3-2.3,4-4
		c1.3-2.2,2-4.6,2.4-7.1c0.7-4.5,1.3-9,1.9-13.5c0.7-4.7,1.3-9.4,2-14.2c0.3-2,0.6-4.1,0.9-6.1C233.5,280.8,233.6,280.6,233.6,280.3
		z"/>
	<path fill="#FFFFFF" d="M281.3,290c0.3,3.6,0.6,7,0.9,10.6c-6.9,0.6-13.8,1.2-20.7,1.7c0.6,7.8,1.3,15.4,1.9,23.2
		c-4.4,0.4-8.6,0.7-13,1.1c-1.6-19.3-3.2-38.4-4.8-57.7c11.7-1,23.4-2,35.1-2.9c0.4,3.6,0.6,7.1,0.9,10.7
		c-7.4,0.6-14.7,1.2-22.2,1.9c0.4,4.4,0.7,8.8,1.1,13.2C267.5,291.2,274.4,290.6,281.3,290z"/>
</g>
</svg>
