<?xml version="1.0" encoding="utf-8"?>
<!-- Generator: Adobe Illustrator 18.1.0, SVG Export Plug-In . SVG Version: 6.00 Build 0)  -->
<!DOCTYPE svg PUBLIC "-//W3C//DTD SVG 1.1//EN" "http://www.w3.org/Graphics/SVG/1.1/DTD/svg11.dtd">
<svg version="1.1" id="jigsaw" xmlns="http://www.w3.org/2000/svg" xmlns:xlink="http://www.w3.org/1999/xlink" x="0px" y="0px"
	 viewBox="0 0 512 512" enable-background="new 0 0 512 512" xml:space="preserve">
<path fill="#DD4B39" d="M512.025,295.967c0,35.137-16.635,52.51-51.662,52.51c-16.245,0-41.662-20.798-44.231-5.905
	c-7.968,46.099,0,158.117,0,158.117s-155.686,25.496-163.459,0c-4.96-16.28,14.619-23.865,14.619-42.2
	c0-29.934-7.383-44.957-40.588-48.66c-29.661-3.295-52.199,17.144-52.199,47.078c0,18.335,21.693,27.764,15.952,43.783
	c-8.57,23.898-182.485,0-182.485,0s-7.968-112.018,0-158.117c2.569-14.893,27.986,5.905,44.231,5.905
	c35.027,0,51.662-17.373,51.662-52.51c0-35.137-18.749-53.26-53.776-53.26c-16.245,0-31.758,18.89-42.117,5.024
	c-17.985-24.061,0-156.486,0-156.486s173.915,23.898,182.485,0c5.74-16.019-15.952-25.448-15.952-43.783
	c0-29.933,22.538-50.373,52.199-47.078c33.206,3.703,40.588,18.727,40.588,48.66c0,18.335-19.579,25.92-14.619,42.2
	c7.773,25.496,163.459,0,163.459,0s-17.985,132.425,0,156.486c10.358,13.866,25.872-5.024,42.117-5.024
	C493.275,242.707,512.025,260.83,512.025,295.967z"/>
<path fill="#FFFFFF" d="M233.004,217.065c0,0-36.105,0-48.138,0c-21.582,0-41.894,16.351-41.894,35.288
	c0,19.352,14.712,34.972,36.668,34.972c1.529,0,3.013-0.029,4.461-0.138c-1.426,2.731-2.443,5.801-2.443,8.992
	c0,5.381,2.892,9.739,6.554,13.298c-2.765,0-5.433,0.08-8.348,0.08c-26.728,0-47.304,17.023-47.304,34.679
	c0,17.385,22.554,28.263,49.288,28.263c30.476,0,47.304-17.293,47.304-34.679c0-13.942-4.111-22.29-16.834-31.287
	c-4.352-3.082-12.671-10.573-12.671-14.971c0-5.157,1.472-7.704,9.239-13.769c7.963-6.221,13.597-14.965,13.597-25.135
	c0-12.108-5.393-23.911-15.517-27.809h15.264l10.774-7.79V217.065z M216.188,334.825c0.379,1.61,0.592,3.271,0.592,4.962
	c0,14.051-9.055,25.026-35.03,25.026c-18.478,0-31.822-11.7-31.822-25.745c0-13.769,16.552-25.233,35.03-25.032
	c4.312,0.046,8.331,0.742,11.976,1.92c10.032,6.974,17.225,10.918,19.254,18.863V334.825z M186.609,282.421
	c-12.401-0.374-24.187-13.873-26.331-30.16c-2.139-16.287,6.175-28.752,18.576-28.384c12.401,0.374,24.187,13.442,26.331,29.729
	C207.323,269.894,199.004,282.795,186.609,282.421z M282.039,251.56v-34.495h-11.498v34.495h-34.495v11.498h34.495v34.495h11.498
	v-34.495h34.495V251.56H282.039z"/>
</svg>
