<?xml version="1.0" encoding="utf-8"?>
<!-- Generator: Adobe Illustrator 18.1.1, SVG Export Plug-In . SVG Version: 6.00 Build 0)  -->
<!DOCTYPE svg PUBLIC "-//W3C//DTD SVG 1.1//EN" "http://www.w3.org/Graphics/SVG/1.1/DTD/svg11.dtd">
<svg version="1.1" id="jigsaw" xmlns="http://www.w3.org/2000/svg" xmlns:xlink="http://www.w3.org/1999/xlink" x="0px" y="0px"
	 viewBox="0 0 50 50" enable-background="new 0 0 50 50" xml:space="preserve">
<path fill="#FF6600" d="M50,28.9c0,3.4-1.6,5.1-5,5.1c-1.6,0-4.1-2-4.3-0.6c-0.8,4.5,0,15.4,0,15.4s-15.2,2.5-16,0
	c-0.5-1.6,1.4-2.3,1.4-4.1c0-2.9-0.7-4.4-4-4.8c-2.9-0.3-5.1,1.7-5.1,4.6c0,1.8,2.1,2.7,1.6,4.3c-0.8,2.3-17.8,0-17.8,0
	S0,38,0.8,33.5C1,32,3.5,34,5.1,34c3.4,0,5-1.7,5-5.1s-1.8-5.2-5.3-5.2c-1.6,0-3.1,1.8-4.1,0.5c-1.8-2.3,0-15.3,0-15.3
	s17,2.3,17.8,0C19.2,7.3,17,6.4,17,4.6c0-2.9,2.2-4.9,5.1-4.6c3.2,0.4,4,1.8,4,4.8c0,1.8-1.9,2.5-1.4,4.1c0.8,2.5,16,0,16,0
	s-1.8,12.9,0,15.3c1,1.4,2.5-0.5,4.1-0.5C48.2,23.7,50,25.5,50,28.9z"/>
<path fill="#FFFFFF" d="M28.3,35.6c0-7.5-6.6-13.7-13.8-13.7v-3.1c8.9,0,16.8,7.5,16.8,16.8H28.3z M25.8,35.6h-3
	c0-1.8-0.9-3.9-2.4-5.5c-1.5-1.6-4.1-2.5-5.9-2.5v-3.1C20,24.6,25.6,29.8,25.8,35.6z M16.6,31.4c1.2,0,2.1,0.9,2.1,2.1
	c0,1.2-0.9,2.1-2.1,2.1s-2.1-0.9-2.1-2.1C14.5,32.3,15.5,31.4,16.6,31.4z"/>
</svg>
