<?xml version="1.0" encoding="utf-8"?>
<!-- Generator: Adobe Illustrator 18.1.0, SVG Export Plug-In . SVG Version: 6.00 Build 0)  -->
<!DOCTYPE svg PUBLIC "-//W3C//DTD SVG 1.1//EN" "http://www.w3.org/Graphics/SVG/1.1/DTD/svg11.dtd">
<svg version="1.1" id="jigsaw" xmlns="http://www.w3.org/2000/svg" xmlns:xlink="http://www.w3.org/1999/xlink" x="0px" y="0px"
	 viewBox="0 0 512 512" enable-background="new 0 0 512 512" xml:space="preserve">
<path fill="#517FA4" d="M512.025,295.967c0,35.137-16.635,52.51-51.662,52.51c-16.245,0-41.662-20.798-44.231-5.905
	c-7.968,46.099,0,158.117,0,158.117s-155.686,25.496-163.459,0c-4.96-16.28,14.619-23.865,14.619-42.2
	c0-29.934-7.383-44.957-40.588-48.66c-29.661-3.295-52.199,17.144-52.199,47.078c0,18.335,21.693,27.764,15.952,43.783
	c-8.57,23.898-182.485,0-182.485,0s-7.968-112.018,0-158.117c2.569-14.893,27.986,5.905,44.231,5.905
	c35.027,0,51.662-17.373,51.662-52.51c0-35.137-18.749-53.26-53.776-53.26c-16.245,0-31.758,18.89-42.117,5.024
	c-17.985-24.061,0-156.486,0-156.486s173.915,23.898,182.485,0c5.74-16.019-15.952-25.448-15.952-43.783
	c0-29.933,22.538-50.373,52.199-47.078c33.206,3.703,40.588,18.727,40.588,48.66c0,18.335-19.579,25.92-14.619,42.2
	c7.773,25.496,163.459,0,163.459,0s-17.985,132.425,0,156.486c10.358,13.866,25.872-5.024,42.117-5.024
	C493.275,242.707,512.025,260.83,512.025,295.967z"/>
<path fill="#FFFFFF" d="M275.632,213.808H167.463c-14.787,0-26.887,12.1-26.887,26.887v108.169c0,14.787,12.1,26.887,26.887,26.887
	h108.169c14.787,0,26.887-12.1,26.887-26.887V240.695C302.518,225.908,290.419,213.808,275.632,213.808z M192.416,284.656h58.262
	c1.103,3.173,1.705,6.579,1.705,10.121c0,17.003-13.835,30.839-30.839,30.839s-30.839-13.835-30.839-30.839
	C190.706,291.234,191.308,287.829,192.416,284.656z M282.271,284.666v60.716c0,5.567-4.554,10.121-10.121,10.121H170.94
	c-5.567,0-10.121-4.554-10.121-10.121v-60.726h15.829c-0.734,3.259-1.123,6.644-1.123,10.121c0,25.373,20.642,46.02,46.02,46.02
	c25.373,0,46.02-20.642,46.02-46.02c0-3.477-0.39-6.862-1.123-10.121L282.271,284.666z M282.271,249.232
	c0,2.783-2.277,5.061-5.061,5.061H267.09c-2.783,0-5.061-2.277-5.061-5.061v-10.121c0-2.783,2.277-5.061,5.061-5.061h10.121
	c2.783,0,5.061,2.277,5.061,5.061V249.232z"/>
</svg>
