<?xml version="1.0" encoding="utf-8"?>
<!-- Generator: Adobe Illustrator 18.1.0, SVG Export Plug-In . SVG Version: 6.00 Build 0)  -->
<!DOCTYPE svg PUBLIC "-//W3C//DTD SVG 1.1//EN" "http://www.w3.org/Graphics/SVG/1.1/DTD/svg11.dtd">
<svg version="1.1" id="jigsaw" xmlns="http://www.w3.org/2000/svg" xmlns:xlink="http://www.w3.org/1999/xlink" x="0px" y="0px"
	 viewBox="0 0 512 512" enable-background="new 0 0 512 512" xml:space="preserve">
<path fill="#55ACEE" d="M512.025,295.967c0,35.137-16.635,52.51-51.662,52.51c-16.245,0-41.662-20.798-44.231-5.905
	c-7.968,46.099,0,158.117,0,158.117s-155.686,25.496-163.459,0c-4.96-16.28,14.619-23.865,14.619-42.2
	c0-29.934-7.383-44.957-40.588-48.66c-29.661-3.295-52.199,17.144-52.199,47.078c0,18.335,21.693,27.764,15.952,43.783
	c-8.57,23.898-182.485,0-182.485,0s-7.968-112.018,0-158.117c2.569-14.893,27.986,5.905,44.231,5.905
	c35.027,0,51.662-17.373,51.662-52.51c0-35.137-18.749-53.26-53.776-53.26c-16.245,0-31.758,18.89-42.117,5.024
	c-17.985-24.061,0-156.486,0-156.486s173.915,23.898,182.485,0c5.74-16.019-15.952-25.448-15.952-43.783
	c0-29.933,22.538-50.373,52.199-47.078c33.206,3.703,40.588,18.727,40.588,48.66c0,18.335-19.579,25.92-14.619,42.2
	c7.773,25.496,163.459,0,163.459,0s-17.985,132.425,0,156.486c10.358,13.866,25.872-5.024,42.117-5.024
	C493.275,242.707,512.025,260.83,512.025,295.967z"/>
<path fill="#FFFFFF" d="M308.562,238.18c-6.547,2.904-13.589,4.867-20.976,5.751c7.537-4.522,13.327-11.675,16.059-20.202
	c-7.059,4.183-14.874,7.226-23.189,8.861c-6.664-7.098-16.153-11.531-26.655-11.531c-20.169,0-36.517,16.348-36.517,36.517
	c0,2.865,0.323,5.651,0.946,8.321c-30.348-1.524-57.259-16.064-75.27-38.158c-3.143,5.395-4.945,11.664-4.945,18.361
	c0,12.671,6.447,23.846,16.248,30.398c-5.985-0.189-11.614-1.83-16.542-4.567c-0.006,0.15-0.006,0.306-0.006,0.462
	c0,17.694,12.588,32.451,29.291,35.805c-3.065,0.834-6.291,1.279-9.623,1.279c-2.353,0-4.639-0.228-6.87-0.656
	c4.645,14.507,18.133,25.064,34.114,25.359c-12.499,9.795-28.246,15.63-45.355,15.63c-2.948,0-5.852-0.172-8.711-0.512
	c16.159,10.363,35.354,16.409,55.98,16.409c67.171,0,103.899-55.646,103.899-103.905c0-1.585-0.033-3.159-0.106-4.722
	c7.137-5.151,13.327-11.581,18.222-18.901H308.562z"/>
</svg>
