<?xml version="1.0" encoding="utf-8"?>
<!-- Generator: Adobe Illustrator 18.1.0, SVG Export Plug-In . SVG Version: 6.00 Build 0)  -->
<!DOCTYPE svg PUBLIC "-//W3C//DTD SVG 1.1//EN" "http://www.w3.org/Graphics/SVG/1.1/DTD/svg11.dtd">
<svg version="1.1" id="jigsaw" xmlns="http://www.w3.org/2000/svg" xmlns:xlink="http://www.w3.org/1999/xlink" x="0px" y="0px"
	 viewBox="0 0 512 512" enable-background="new 0 0 512 512" xml:space="preserve">
<path fill="#2ECC71" d="M512.025,295.967c0,35.137-16.635,52.51-51.662,52.51c-16.245,0-41.662-20.798-44.231-5.905
	c-7.968,46.099,0,158.117,0,158.117s-155.686,25.496-163.459,0c-4.96-16.28,14.619-23.865,14.619-42.2
	c0-29.934-7.383-44.957-40.588-48.66c-29.661-3.295-52.199,17.144-52.199,47.078c0,18.335,21.693,27.764,15.952,43.783
	c-8.57,23.898-182.485,0-182.485,0s-7.968-112.018,0-158.117c2.569-14.893,27.986,5.905,44.231,5.905
	c35.027,0,51.662-17.373,51.662-52.51c0-35.137-18.749-53.26-53.776-53.26c-16.245,0-31.758,18.89-42.117,5.024
	c-17.985-24.061,0-156.486,0-156.486s173.915,23.898,182.485,0c5.74-16.019-15.952-25.448-15.952-43.783
	c0-29.933,22.538-50.373,52.199-47.078c33.206,3.703,40.588,18.727,40.588,48.66c0,18.335-19.579,25.92-14.619,42.2
	c7.773,25.496,163.459,0,163.459,0s-17.985,132.425,0,156.486c10.358,13.866,25.872-5.024,42.117-5.024
	C493.275,242.707,512.025,260.83,512.025,295.967z"/>
<path fill="#FFFFFF" d="M289.364,215.286l-17.735-0.221l-14.633-13.082l-10.446,3.358c-0.193-8.58-2.79-21.161-16.37-20.707
	c-0.58,0.02-1.152,0.063-1.717,0.126c-2.794-3.903-7.19-6.579-14.037-6.35c-26.346,0.884-36.954,42.543-38.573,49.654l-24.393,7.842
	l-16.626,121.937l113.958,22.625l62.302-15.529L289.364,215.286z M226.887,211.66L205,218.696
	c2.991-8.426,9.061-21.161,19.515-26.039C227.124,199.331,227.006,208.66,226.887,211.66L226.887,211.66z M214.424,185.578
	c2.636-0.414,4.724,0.225,6.374,1.547c-12.277,6.362-19.243,23.406-22.451,33.711l-15.17,4.874
	C184.337,220.863,192.759,188.991,214.424,185.578L214.424,185.578z M210.15,295.226c10.655,8.288,12.234,21.705,9.866,30.388
	c-2.368,8.682-6.314,21.705-24.468,23.679c-18.154,1.973-33.545-11.839-33.545-11.839l5.525-17.759c0,0,21.997,14.491,25.652,4.736
	c3.453-9.215,0.687-8.11-12.629-21.311c-13.292-13.177-8.449-31.714-3.552-38.281c20.675-27.716,52.093-13.813,52.093-13.813
	l-8.288,22.1c0,0-19.121-9.037-25.257,1.184C190.987,281.914,199.495,286.938,210.15,295.226z M232.748,209.777
	c0.339-2.96,1.026-11.528-1.346-18.963c7.1-0.122,9.1,9.282,9.598,16.311L232.748,209.777L232.748,209.777z"/>
</svg>
